<?xml version="1.0" standalone="no"?>
<!DOCTYPE svg PUBLIC "-//W3C//DTD SVG 20010904//EN"
 "http://www.w3.org/TR/2001/REC-SVG-20010904/DTD/svg10.dtd">
<svg version="1.0" xmlns="http://www.w3.org/2000/svg"
 width="500.000000pt" height="500.000000pt" viewBox="0 0 500.000000 500.000000"
 preserveAspectRatio="xMidYMid meet">
<metadata>
Created by potrace 1.14, written by Peter Selinger 2001-2017
</metadata>
<g transform="translate(0.000000,500.000000) scale(0.100000,-0.100000)"
fill="#000000" stroke="none">
<path d="M1870 3224 c0 -6 -23 -10 -52 -9 -65 1 -99 -5 -93 -16 3 -4 -10 -7
-29 -5 -20 1 -34 -2 -33 -8 1 -6 -4 -10 -10 -8 -7 1 -13 -3 -13 -9 0 -5 -4 -7
-10 -4 -5 3 -10 1 -10 -6 0 -7 -3 -10 -6 -7 -8 8 -60 -42 -56 -55 2 -6 -5 -4
-14 4 -16 12 -17 12 -11 -3 4 -11 2 -17 -5 -15 -7 1 -12 -5 -13 -13 0 -8 -11
-20 -25 -27 -14 -7 -19 -13 -12 -13 7 0 10 -5 7 -10 -4 -6 -11 -8 -16 -5 -5 4
-6 -2 -2 -11 5 -13 3 -16 -9 -11 -11 4 -15 0 -14 -10 4 -25 -23 -73 -40 -73
-8 0 -13 -4 -10 -8 3 -5 -1 -9 -9 -9 -8 0 -15 4 -15 9 0 15 -25 8 -43 -12 -9
-11 -13 -20 -9 -20 13 0 11 -33 -2 -49 -8 -11 -8 -13 2 -7 6 4 12 3 12 -3 0
-5 -6 -12 -12 -14 -10 -4 -10 -6 0 -6 8 -1 10 -6 6 -13 -14 -22 -11 -48 5 -49
12 0 11 -3 -4 -9 -11 -5 -14 -9 -6 -9 7 -1 11 -7 8 -15 -3 -7 0 -19 6 -26 9
-10 9 -11 0 -6 -6 3 -14 2 -18 -4 -3 -5 -1 -10 4 -10 6 0 11 -5 11 -11 0 -5
-6 -7 -12 -3 -9 5 -9 2 1 -9 7 -10 9 -17 3 -17 -11 0 -11 -18 1 -37 5 -8 3
-13 -5 -13 -9 0 -10 -2 -2 -8 30 -19 -36 -36 -66 -17 -8 5 -11 4 -7 -2 7 -12
-42 -11 -61 1 -6 3 -13 2 -17 -4 -3 -5 -11 -10 -16 -10 -6 0 -7 5 -4 10 3 6 1
10 -4 10 -6 0 -11 -4 -11 -8 0 -11 -63 -8 -81 3 -8 6 -10 4 -4 -5 6 -10 4 -12
-11 -6 -32 13 -55 15 -49 5 9 -13 -9 -11 -24 4 -11 9 -12 9 -7 0 5 -9 2 -11
-9 -7 -9 4 -14 12 -11 19 2 7 -1 18 -7 24 -9 9 -8 11 3 6 11 -4 16 1 16 14 0
11 -4 17 -8 15 -10 -6 -5 26 6 45 5 8 5 12 0 8 -5 -3 -10 26 -11 64 -1 38 2
67 6 65 4 -3 8 1 8 9 0 8 -4 12 -9 9 -10 -6 -6 26 6 45 6 9 5 12 -2 7 -7 -4
-10 3 -8 22 3 21 0 28 -14 28 -10 0 -16 -4 -14 -8 3 -4 0 -8 -5 -8 -6 0 -11 6
-11 13 0 8 -4 7 -10 -3 -9 -14 -14 -7 -11 13 1 5 -3 6 -9 2 -5 -3 -10 -15 -10
-25 0 -10 -4 -21 -10 -25 -6 -4 -6 -15 0 -30 7 -17 6 -25 -1 -25 -7 0 -6 -6 2
-17 12 -15 12 -16 -1 -8 -12 7 -13 6 -3 -6 10 -12 10 -18 1 -27 -9 -9 -9 -12
1 -12 10 0 11 -3 2 -14 -7 -9 -8 -17 -2 -20 10 -6 9 -31 -1 -42 -4 -3 -3 -17
2 -30 7 -16 6 -24 -1 -24 -8 0 -8 -4 0 -14 9 -11 9 -15 -1 -19 -10 -4 -10 -6
0 -6 6 -1 12 -6 12 -12 0 -5 -5 -7 -12 -3 -7 5 -8 3 -3 -7 13 -20 13 -89 1
-89 -6 0 -4 -5 4 -10 13 -9 13 -10 0 -10 -13 0 -13 -1 0 -10 13 -9 13 -10 0
-10 -9 0 -11 -3 -5 -8 14 -9 14 -45 0 -54 -6 -5 -4 -8 5 -8 13 0 13 -1 0 -10
-8 -5 -10 -10 -4 -10 12 0 13 -38 1 -57 -5 -8 -3 -13 4 -13 9 0 9 -3 0 -14 -7
-9 -8 -17 -2 -20 11 -7 9 -25 -3 -45 -7 -11 -6 -12 5 -6 12 8 12 6 0 -8 -11
-14 -11 -17 0 -17 11 0 11 -2 -1 -10 -21 -14 -33 -12 -24 3 5 8 2 8 -9 -2 -13
-10 -20 -11 -31 -2 -10 8 -16 9 -21 1 -3 -5 -11 -10 -16 -10 -6 0 -7 6 -3 13
6 9 4 9 -7 1 -21 -15 -125 -12 -121 5 1 7 -2 10 -8 6 -6 -3 -8 -9 -6 -13 2 -4
-21 -7 -52 -7 -40 1 -56 4 -54 13 2 10 -2 10 -17 0 -11 -7 -17 -16 -15 -20 3
-4 0 -8 -7 -8 -9 0 -9 -3 0 -14 8 -9 8 -16 2 -20 -6 -4 -8 -13 -4 -22 3 -8 7
-13 10 -11 2 3 20 1 39 -3 28 -7 34 -5 30 5 -3 9 0 12 9 8 8 -3 12 -10 8 -17
-4 -6 0 -6 9 2 13 10 17 10 21 0 4 -10 6 -10 6 0 1 6 10 12 22 12 13 0 18 -4
13 -12 -4 -7 -3 -8 4 -4 16 10 125 11 140 2 7 -4 12 -4 12 1 0 9 57 10 66 1 3
-3 20 -2 39 2 21 5 38 3 46 -4 9 -8 10 -8 5 2 -4 6 -2 12 4 12 8 0 8 6 0 20
-8 15 -8 18 3 15 8 -4 13 2 13 14 0 11 -4 17 -8 15 -10 -6 -5 26 6 45 6 9 5
12 -1 8 -12 -8 -11 93 1 112 6 9 5 12 -1 8 -12 -8 -11 93 1 112 7 10 6 12 -4
6 -10 -6 -12 -4 -7 9 4 10 7 21 7 24 0 4 5 0 10 -8 8 -12 10 -12 10 -1 0 11 3
11 17 0 11 -10 14 -10 9 -1 -4 6 -3 12 3 12 5 0 13 -5 16 -11 5 -7 15 -5 30 5
17 12 26 13 31 4 5 -7 3 -8 -6 -3 -9 5 -11 4 -6 -4 6 -9 11 -9 21 -1 10 8 14
7 18 -2 4 -10 6 -10 6 0 1 6 8 12 17 12 9 0 12 -5 8 -12 -6 -10 -4 -10 7 0 7
6 17 12 22 12 4 0 5 -6 1 -12 -6 -10 -4 -10 8 0 13 10 17 10 21 0 4 -8 6 -7 6
5 1 9 5 17 11 17 5 0 9 -4 7 -9 -1 -5 3 -9 8 -9 6 0 9 5 7 11 -1 7 4 4 12 -6
10 -14 15 -15 19 -5 4 10 8 10 16 -2 9 -13 12 -13 23 -1 11 11 11 13 -1 6 -10
-6 -12 -4 -7 4 6 9 11 9 22 0 7 -6 11 -15 8 -20 -3 -5 0 -9 5 -9 13 0 10 -22
-4 -32 -6 -5 -5 -8 3 -8 9 0 10 -5 3 -18 -7 -13 -6 -23 2 -31 8 -8 8 -14 2
-19 -12 -8 -12 -42 -1 -61 5 -8 3 -17 -5 -22 -11 -7 -11 -9 -1 -9 9 0 10 -5 3
-18 -7 -13 -6 -23 2 -31 8 -8 8 -14 2 -19 -11 -8 -13 -47 -2 -58 12 -12 8 -26
-5 -18 -8 5 -8 1 1 -10 8 -9 23 -15 32 -13 10 3 20 0 23 -7 2 -6 5 -2 6 9 1
19 2 19 9 2 7 -18 8 -18 21 -1 13 16 13 17 0 9 -10 -6 -9 -2 3 12 12 14 15 23
8 28 -6 3 -11 11 -11 16 0 6 4 8 8 5 5 -3 9 1 9 9 0 8 -4 12 -8 10 -3 -3 -9 4
-12 15 -3 11 0 23 5 27 7 3 8 1 4 -5 -4 -7 -2 -12 3 -12 14 0 14 17 1 25 -8 5
-7 11 1 21 9 11 8 14 -2 14 -9 0 -10 3 -4 8 6 4 11 13 13 21 3 12 0 12 -13 1
-13 -11 -15 -10 -9 4 3 9 10 16 16 16 5 0 6 5 3 10 -4 6 -10 8 -14 6 -4 -3 -5
9 -3 26 3 21 7 26 13 17 6 -10 9 -10 9 -2 0 6 -5 15 -10 18 -8 5 -7 11 1 21 9
11 8 14 -2 14 -9 0 -10 3 -4 8 6 4 11 13 13 21 3 12 0 12 -13 1 -13 -11 -15
-10 -9 4 3 9 11 16 17 16 6 0 2 7 -9 15 -18 13 -17 14 11 9 17 -3 35 -10 40
-16 7 -8 6 -9 -2 -4 -7 4 -13 2 -13 -3 0 -6 5 -11 10 -11 6 0 10 -9 10 -21 0
-11 4 -18 8 -15 5 3 14 -11 21 -30 7 -19 17 -32 22 -29 8 6 13 -10 12 -42 0
-6 5 -9 12 -7 7 3 16 0 21 -7 5 -8 3 -10 -7 -5 -8 4 -4 -1 9 -13 13 -11 18
-22 12 -26 -6 -4 -3 -16 8 -33 9 -14 12 -23 6 -19 -7 4 -14 0 -18 -8 -3 -8 -2
-15 2 -15 4 0 8 -9 8 -19 0 -11 -4 -17 -8 -15 -4 3 -8 0 -8 -5 0 -6 5 -11 10
-11 6 0 10 -5 10 -11 0 -5 -6 -7 -12 -3 -10 5 -10 4 -1 -6 6 -7 9 -19 6 -26
-4 -10 0 -12 13 -7 10 4 15 2 11 -4 -3 -5 1 -10 9 -10 9 0 13 6 9 15 -4 12 -3
12 9 3 8 -6 29 -11 48 -9 19 1 40 -2 47 -7 10 -5 12 -4 7 3 -4 7 -2 12 3 12 6
0 11 -4 11 -10 0 -5 7 -6 17 -3 10 4 14 2 9 -5 -3 -6 3 -13 14 -17 11 -4 17
-11 14 -17 -4 -7 -2 -8 5 -4 15 10 43 -13 37 -30 -3 -8 0 -11 8 -8 8 3 20 -4
28 -15 8 -12 19 -18 24 -13 4 4 3 0 -4 -9 -11 -14 -9 -16 10 -15 14 0 22 -4
21 -11 -2 -7 6 -13 17 -13 11 0 20 -7 20 -16 0 -8 5 -12 10 -9 6 3 10 1 10 -4
0 -6 7 -11 15 -11 8 0 15 -4 15 -10 0 -5 7 -10 15 -10 8 0 15 -7 15 -16 0 -8
5 -12 10 -9 6 3 10 1 10 -5 0 -6 4 -9 9 -6 5 3 11 -1 15 -9 3 -8 13 -15 21
-15 10 0 13 -5 9 -12 -5 -8 0 -7 11 2 10 8 16 10 12 4 -4 -6 3 -20 15 -30 12
-11 18 -13 14 -6 -4 6 -2 12 3 12 6 0 11 -7 11 -15 0 -8 9 -15 21 -15 11 0 17
-5 14 -10 -4 -6 3 -8 17 -6 13 3 27 5 31 5 5 1 6 5 3 10 -3 5 1 12 10 15 8 3
12 2 9 -4 -3 -5 1 -7 9 -4 9 3 15 9 14 12 -2 20 3 25 12 12 8 -13 10 -12 10 3
0 9 6 17 14 17 8 0 17 7 20 16 3 8 10 12 16 9 5 -3 10 -1 10 5 0 6 11 15 25
20 14 5 25 15 25 22 0 9 3 8 10 -2 8 -13 10 -12 10 3 0 9 6 17 13 17 16 0 47
36 39 45 -4 4 -2 5 3 4 6 -2 20 2 31 9 12 6 24 8 28 4 4 -3 4 2 0 11 -4 12 -2
17 7 15 8 -2 13 2 12 9 -1 6 4 14 13 17 10 4 13 2 8 -6 -4 -7 -3 -8 4 -4 7 4
12 14 12 22 0 8 6 13 13 11 6 -1 11 4 10 10 -2 7 3 12 10 10 6 -1 11 4 10 11
-2 6 4 12 12 12 8 0 15 5 15 11 0 5 4 8 9 5 5 -3 12 5 15 19 4 14 10 24 14 24
17 -3 35 2 29 7 -7 8 59 74 73 74 6 0 9 3 8 8 -2 13 14 42 22 37 4 -3 10 5 13
16 4 13 10 18 18 13 8 -4 10 -3 5 4 -4 7 -2 12 3 12 6 0 10 6 8 13 -1 6 3 11
10 10 7 -2 10 4 7 12 -4 9 0 15 10 15 9 0 13 6 10 14 -3 8 0 17 7 22 7 4 10 3
6 -3 -4 -6 3 -13 16 -17 18 -5 20 -8 7 -16 -10 -6 -11 -10 -2 -10 6 0 12 -10
12 -22 0 -13 4 -30 10 -38 5 -9 5 -19 -2 -27 -7 -9 -7 -13 2 -13 10 0 10 -3 0
-15 -10 -12 -10 -15 1 -15 11 0 11 -2 -1 -10 -12 -8 -12 -10 -1 -10 9 0 12 -9
9 -30 -3 -17 0 -30 6 -30 8 0 8 -3 0 -8 -6 -4 -4 -13 8 -24 17 -17 18 -17 19
0 0 14 2 14 9 -3 5 -11 9 -14 9 -6 1 11 4 11 18 0 15 -12 16 -12 10 4 -6 15
-4 16 14 6 18 -9 19 -9 10 9 -6 11 -7 22 -4 26 3 3 1 6 -6 6 -8 0 -9 5 -1 19
7 14 6 21 -3 24 -9 4 -8 8 3 16 9 6 10 11 3 11 -13 0 -12 18 1 39 6 9 5 12 -1
8 -12 -8 -25 17 -15 27 3 4 6 15 7 26 1 14 -2 17 -10 10 -9 -8 -12 -4 -10 14
2 14 6 30 11 37 4 7 3 10 -3 6 -10 -6 -38 40 -35 55 1 5 -4 7 -11 5 -6 -1 -11
4 -10 10 2 7 0 12 -5 12 -28 -5 -32 3 -8 22 14 11 26 27 26 35 0 8 5 12 10 9
6 -3 10 -1 10 5 0 6 4 8 10 5 6 -3 7 1 4 9 -4 10 -1 16 7 16 11 0 11 3 -1 10
-13 8 -12 10 3 10 11 0 15 5 11 11 -3 6 0 15 7 20 12 8 12 11 -1 19 -12 8 -12
10 -1 10 11 0 11 3 0 17 -12 14 -12 16 1 11 13 -5 15 2 14 36 -2 22 -3 43 -5
46 -1 3 -1 9 0 13 1 5 -4 5 -10 1 -8 -5 -10 -2 -6 9 3 8 -1 21 -9 28 -10 8
-11 16 -5 22 7 7 5 20 -5 38 -8 16 -10 29 -5 29 5 0 9 9 8 19 -1 12 -6 17 -16
13 -9 -3 -12 -1 -7 6 3 6 2 13 -4 17 -6 4 -8 11 -5 16 4 5 1 9 -5 9 -6 0 -8 5
-5 10 3 6 0 10 -7 10 -9 0 -9 3 2 10 13 8 12 10 -3 10 -10 0 -15 5 -12 10 3 6
1 10 -5 10 -7 0 -10 6 -7 14 3 8 -1 17 -9 20 -9 3 -12 11 -9 16 4 6 1 9 -6 8
-7 -2 -18 7 -24 20 -5 12 -15 20 -22 18 -7 -3 -10 1 -6 10 3 8 -1 14 -11 14
-9 0 -16 5 -16 10 0 6 -7 10 -16 10 -13 0 -14 3 -5 13 8 11 6 13 -12 12 -12
-1 -29 6 -38 16 -12 14 -19 15 -27 7 -9 -9 -12 -8 -12 7 0 10 -3 15 -7 12 -3
-4 -13 -1 -21 6 -9 6 -13 7 -9 1 3 -6 0 -11 -8 -11 -8 0 -12 4 -10 8 6 9 -23
16 -67 14 -21 0 -38 4 -38 10 0 7 -3 7 -8 0 -8 -13 -22 -13 -41 -1 -10 7 -12
6 -6 -4 6 -10 0 -12 -23 -8 -17 2 -29 1 -26 -3 2 -4 0 -10 -6 -14 -5 -3 -10 0
-10 7 0 9 -3 10 -8 2 -4 -6 -25 -17 -47 -25 -22 -7 -45 -19 -51 -26 -6 -7 -15
-9 -19 -5 -5 4 -5 -1 -2 -11 4 -11 3 -16 -3 -12 -6 4 -17 -1 -26 -9 -9 -9 -20
-13 -26 -10 -6 4 -8 3 -5 -3 4 -5 -4 -19 -16 -31 -34 -31 -52 -56 -49 -64 1
-5 -3 -8 -9 -8 -5 0 -7 -6 -3 -12 5 -9 2 -8 -9 1 -15 12 -17 12 -11 -3 3 -9 1
-16 -5 -16 -6 0 -11 9 -11 21 0 11 -4 17 -10 14 -5 -3 -10 1 -10 10 0 10 -5
13 -12 9 -8 -5 -9 -2 -5 10 4 10 3 15 -3 11 -6 -3 -10 -3 -10 2 0 16 -48 63
-65 63 -11 0 -15 5 -11 16 5 12 1 14 -15 9 -16 -5 -19 -4 -14 6 6 9 3 11 -10
5 -14 -5 -15 -4 -7 7 8 10 6 13 -10 14 -11 1 -37 11 -59 21 -21 11 -36 14 -32
8 3 -6 0 -5 -8 2 -7 6 -22 12 -34 12 -12 0 -26 5 -33 12 -7 7 -12 8 -12 2z
m-421 -750 c14 -12 -19 -1 -35 12 -18 14 -18 14 6 3 14 -6 27 -13 29 -15z"/>
<path d="M3289 2913 c-1 -5 -1 -11 0 -15 0 -5 -6 -8 -14 -8 -13 0 -14 -4 -5
-20 8 -15 8 -20 -2 -20 -9 0 -9 -3 2 -10 8 -5 10 -10 4 -10 -11 0 -11 -46 -1
-57 3 -2 1 -18 -3 -34 -6 -20 -5 -29 3 -29 8 0 7 -3 -2 -9 -11 -7 -11 -9 0
-14 12 -4 11 -7 -1 -16 -13 -10 -13 -11 0 -11 9 0 11 -3 5 -8 -12 -8 -13 -32
-2 -49 5 -7 4 -13 -1 -13 -9 0 -8 -47 1 -57 3 -2 1 -18 -3 -34 -6 -20 -5 -29
3 -29 8 0 7 -3 -2 -9 -11 -7 -11 -9 0 -14 12 -4 11 -7 -1 -16 -13 -10 -13 -11
0 -11 9 0 11 -3 5 -8 -12 -8 -13 -32 -2 -49 5 -7 4 -13 -1 -13 -9 0 -8 -47 1
-57 3 -2 1 -18 -3 -34 -6 -20 -5 -29 3 -29 8 0 7 -3 -2 -9 -11 -7 -11 -9 0
-14 12 -4 11 -7 -1 -16 -13 -10 -13 -11 0 -11 9 0 11 -3 5 -8 -12 -8 -13 -32
-2 -49 5 -7 4 -13 -1 -13 -5 0 -6 -14 -4 -31 4 -24 9 -30 23 -26 11 3 22 1 25
-4 3 -5 9 -7 14 -4 8 5 127 9 140 5 18 -6 60 -4 60 2 0 4 -5 8 -12 8 -6 0 -8
3 -5 6 4 4 12 2 19 -3 19 -16 111 -16 102 0 -4 7 2 4 13 -6 16 -14 22 -15 26
-5 4 10 8 10 16 -2 9 -13 11 -12 12 5 l0 20 9 -20 c6 -13 9 -15 9 -5 1 13 2
13 11 0 8 -12 10 -12 11 5 l0 20 9 -20 c5 -12 9 -14 9 -6 1 8 4 12 7 9 12 -13
64 58 64 87 0 8 5 14 12 12 11 -2 13 2 17 36 1 8 4 8 10 -3 6 -8 7 -18 4 -24
-3 -5 -1 -6 4 -3 6 4 17 -1 24 -10 10 -12 10 -14 2 -9 -7 4 -13 2 -13 -3 0 -6
5 -11 10 -11 6 0 10 -6 10 -14 0 -8 7 -17 16 -20 8 -3 12 -10 9 -16 -3 -5 -1
-10 4 -10 6 0 11 -9 11 -20 0 -11 7 -20 15 -20 9 0 12 -6 9 -15 -4 -9 3 -23
15 -34 11 -10 21 -24 21 -30 0 -16 37 -54 55 -57 8 -1 13 2 9 7 -3 5 -10 6
-16 3 -6 -4 -8 -2 -5 4 4 5 16 8 26 5 20 -5 47 28 34 41 -3 3 -1 6 6 6 7 0 9
5 6 10 -3 6 2 10 12 10 15 0 16 2 3 10 -13 8 -12 10 3 10 11 0 15 4 11 12 -4
6 1 17 11 25 11 7 16 13 12 13 -5 0 -2 6 5 14 9 10 17 11 26 4 9 -8 12 -5 13
8 0 18 1 18 9 -1 5 -11 9 -14 9 -8 1 9 8 10 26 3 15 -6 25 -6 25 0 0 5 13 5
31 0 26 -8 30 -7 24 7 -5 15 -4 15 13 0 21 -19 37 -23 27 -7 -8 13 18 8 27 -5
5 -6 8 -5 8 4 0 11 3 11 15 1 8 -7 15 -8 15 -3 0 11 33 9 64 -3 15 -6 17 -4
11 7 -8 12 -6 12 8 0 11 -8 17 -9 17 -2 0 7 8 8 23 2 35 -13 57 4 57 44 0 30
-3 35 -24 35 -13 0 -27 6 -29 13 -4 10 -6 10 -6 0 -1 -7 -6 -13 -12 -13 -5 0
-7 5 -3 12 5 7 3 8 -7 2 -20 -12 -139 -13 -132 -1 4 6 1 7 -7 2 -19 -12 -69
-14 -76 -3 -3 5 -12 4 -20 -3 -11 -9 -18 -8 -31 2 -9 8 -14 9 -11 4 9 -14 -95
-14 -104 0 -5 6 -8 6 -8 -2 0 -7 -6 -13 -13 -13 -7 0 -20 -9 -29 -19 -12 -14
-13 -22 -5 -31 9 -10 9 -11 0 -6 -12 7 -18 -6 -13 -29 1 -5 -2 -7 -5 -3 -4 4
-16 -3 -27 -15 -11 -12 -17 -16 -13 -9 3 6 1 12 -5 12 -6 0 -9 3 -7 8 7 10
-19 32 -29 24 -5 -4 -2 1 5 11 9 11 10 17 2 17 -6 0 -11 7 -11 16 0 8 -4 13
-9 9 -13 -7 -24 31 -15 47 5 9 2 8 -9 -1 -15 -12 -17 -12 -11 4 5 13 4 16 -4
11 -8 -5 -12 0 -12 13 0 12 -4 21 -10 21 -5 0 -10 5 -10 11 0 5 6 7 13 4 6 -4
2 2 -10 13 -12 11 -20 22 -17 25 8 8 -47 47 -57 41 -5 -3 -6 -11 -2 -17 4 -7
-2 -5 -12 3 -10 8 -16 10 -12 4 3 -6 -2 -16 -13 -24 -10 -7 -16 -19 -13 -27 3
-7 0 -13 -7 -13 -6 0 -9 -4 -6 -9 3 -5 -1 -11 -9 -15 -8 -3 -15 -11 -15 -19 0
-7 -9 -23 -20 -35 -13 -14 -16 -22 -8 -22 9 0 9 -3 -2 -10 -9 -6 -20 -5 -29 3
-12 9 -13 9 -7 0 4 -8 1 -13 -9 -13 -10 0 -13 5 -9 13 6 9 5 9 -7 0 -12 -10
-18 -10 -29 0 -9 8 -11 9 -6 0 4 -8 -3 -11 -23 -11 -19 1 -28 5 -24 12 4 7 1
6 -7 -1 -7 -6 -19 -9 -26 -6 -8 3 -14 -1 -14 -8 -1 -10 -5 -8 -14 4 -11 14
-15 15 -19 5 -4 -10 -8 -10 -16 2 -6 8 -11 10 -11 4 0 -7 -16 -11 -42 -9 -24
1 -51 -2 -62 -8 -12 -6 -16 -6 -12 1 3 5 -1 15 -9 22 -14 11 -14 15 0 36 14
22 14 23 -2 18 -15 -5 -15 -3 1 10 20 16 20 16 0 17 -11 0 -14 3 -6 6 9 4 10
8 2 18 -8 10 -8 15 0 20 8 5 7 11 -2 23 -11 13 -10 15 5 9 15 -6 16 -4 5 16
-6 12 -12 30 -13 39 -1 15 1 16 14 5 12 -9 11 -5 -3 17 -10 16 -13 25 -6 21 7
-4 11 -1 9 6 -1 8 -1 21 0 29 1 13 2 13 11 0 7 -11 10 -11 10 -2 0 8 5 10 12
6 19 -12 48 -12 55 -1 4 6 1 7 -7 2 -9 -6 -11 -4 -5 5 6 10 11 9 22 -5 8 -12
13 -14 13 -6 0 10 3 11 14 2 11 -9 16 -9 22 0 5 8 3 9 -6 4 -9 -6 -11 -4 -5 5
6 10 11 9 21 -4 9 -13 13 -14 17 -4 4 10 8 10 16 -2 8 -11 11 -12 11 -2 0 8 5
10 12 6 22 -14 49 -12 44 3 -7 17 -1 17 18 -3 10 -10 16 -11 16 -3 0 9 3 9 14
0 11 -9 16 -9 22 0 5 8 3 9 -6 4 -9 -5 -11 -4 -6 4 6 9 11 9 24 -1 12 -10 14
-10 8 0 -4 7 -2 12 5 12 7 0 4 7 -7 16 -10 8 -14 13 -7 10 6 -4 14 -2 18 4 3
5 1 10 -5 10 -7 0 -10 6 -7 14 4 9 -2 13 -16 11 -12 0 -30 3 -41 8 -12 6 -16
5 -12 -1 6 -11 -44 -10 -62 2 -6 3 -13 2 -17 -4 -3 -5 -11 -10 -16 -10 -6 0
-7 5 -4 10 3 6 1 10 -4 10 -6 0 -11 -5 -11 -11 0 -8 -4 -8 -13 -1 -8 7 -18 7
-27 2 -8 -5 -19 -6 -24 -2 -15 9 -46 10 -41 1 3 -4 -1 -9 -8 -11 -16 -6 -59
17 -50 26 4 4 1 11 -7 16 -12 8 -12 10 -1 10 10 0 11 3 2 14 -8 10 -9 16 -1
21 14 9 13 28 -2 19 -10 -6 -10 -4 0 7 6 7 12 17 12 22 0 4 -6 5 -12 1 -10 -6
-10 -4 0 7 6 7 12 17 12 22 0 4 -6 5 -12 1 -10 -6 -10 -4 0 7 6 7 12 17 12 22
0 4 -6 5 -12 1 -10 -6 -10 -4 0 7 13 14 17 33 4 25 -4 -2 -8 4 -8 14 0 15 3
17 15 7 12 -10 13 -9 4 8 -8 15 -7 23 3 33 8 7 14 10 14 6 0 -3 7 0 17 7 13
11 17 11 20 2 3 -9 10 -10 24 -3 15 9 19 7 19 -7 0 -15 2 -15 15 3 8 11 14 14
15 6 0 -10 5 -10 20 -2 15 8 20 8 20 -1 0 -9 3 -9 14 0 10 9 15 8 19 -4 4 -8
13 -12 22 -9 8 3 12 11 8 17 -4 6 -1 7 8 2 18 -12 49 -14 43 -3 -3 4 -1 8 5 8
5 0 11 -6 14 -12 3 -10 7 -10 20 1 13 10 17 10 17 1 0 -9 4 -9 17 1 9 8 14 9
10 2 -8 -13 18 -12 30 2 5 4 2 5 -6 0 -11 -6 -13 -4 -8 7 3 9 0 21 -6 27 -9 9
-8 11 4 6 10 -4 16 0 16 10 0 8 -9 15 -20 15 -14 0 -17 5 -13 17 6 15 4 15
-13 -1 -16 -15 -24 -16 -35 -7 -11 9 -16 9 -21 0 -6 -8 -10 -7 -16 2 -7 12 -9
11 -9 -1 -1 -11 -3 -11 -11 3 -10 17 -12 18 -30 1 -14 -13 -22 -14 -32 -6 -10
9 -17 8 -25 0 -9 -9 -12 -9 -12 1 0 11 -3 11 -15 1 -12 -10 -18 -10 -29 -1
-11 9 -16 9 -21 0 -6 -8 -10 -7 -16 2 -7 12 -9 11 -9 -1 -1 -11 -3 -11 -11 3
-10 17 -12 18 -30 1 -15 -14 -21 -14 -34 -4 -8 7 -15 9 -15 5 0 -4 -8 -1 -17
6 -11 10 -14 10 -9 2 4 -7 2 -13 -3 -13 -6 0 -14 0 -18 0 -5 0 -7 5 -5 10 1 6
0 10 -3 10 -3 0 -6 -3 -6 -7z m321 -457 c0 -3 -4 -8 -10 -11 -5 -3 -10 -1 -10
4 0 6 5 11 10 11 6 0 10 -2 10 -4z"/>
<path d="M3360 2166 c0 -2 7 -9 15 -16 13 -11 14 -10 9 4 -5 14 -24 23 -24 12z"/>
</g>
</svg>
