<svg width="25" height="30" viewBox="0 0 25 30" fill="none" xmlns="http://www.w3.org/2000/svg">
<path d="M12.5 30C14.471 30 16.0697 28.3213 16.0697 26.25H8.93026C8.93026 28.3213 10.529 30 12.5 30ZM24.5195 21.2279C23.4414 20.0115 21.4241 18.1816 21.4241 12.1875C21.4241 7.63477 18.3839 3.99023 14.2846 3.09609V1.875C14.2846 0.839648 13.4855 0 12.5 0C11.5145 0 10.7154 0.839648 10.7154 1.875V3.09609C6.61609 3.99023 3.57592 7.63477 3.57592 12.1875C3.57592 18.1816 1.55863 20.0115 0.480506 21.2279C0.145685 21.6059 -0.00275159 22.0576 3.85818e-05 22.5C0.00617696 23.4609 0.724367 24.375 1.79133 24.375H23.2087C24.2756 24.375 24.9944 23.4609 25 22.5C25.0028 22.0576 24.8543 21.6053 24.5195 21.2279Z" fill="#FFC656"/>
</svg>
