<svg width="292" height="119" viewBox="0 0 292 119" fill="none" xmlns="http://www.w3.org/2000/svg">
<rect width="292" height="98" rx="40" fill="#FF5050"/>
<path d="M122.395 20.282V21.948H119.819V24.832C119.819 28.444 121.051 29.62 122.507 30.292V32.056C120.953 31.608 119.567 30.53 118.867 29.326C118.153 30.53 116.767 31.608 115.227 32.056V30.292C116.669 29.62 117.901 28.444 117.901 24.832V21.948H115.353V20.282H122.395ZM125.601 25.154H127.533V26.806H125.601V32.91H123.683V20.058H125.601V25.154ZM131.271 21.822V23.278H139.377V24.86H135.247V25.854H140.105V27.492H128.541V25.854H133.343V24.86H129.353V20.212H139.293V21.822H131.271ZM129.129 30.726C129.129 29.858 129.521 29.27 130.235 28.864C131.145 28.36 132.573 28.178 134.337 28.178C136.101 28.178 137.529 28.36 138.439 28.864C139.167 29.27 139.545 29.858 139.545 30.726C139.545 31.594 139.167 32.182 138.439 32.574C137.529 33.092 136.101 33.274 134.337 33.274C132.573 33.274 131.145 33.092 130.235 32.574C129.521 32.182 129.129 31.594 129.129 30.726ZM131.047 30.726C131.047 30.978 131.173 31.174 131.425 31.3C131.943 31.58 132.909 31.65 134.337 31.65C135.765 31.65 136.731 31.58 137.249 31.3C137.501 31.174 137.627 30.978 137.627 30.726C137.627 30.474 137.501 30.278 137.249 30.138C136.731 29.872 135.765 29.788 134.337 29.788C132.909 29.788 131.943 29.872 131.425 30.138C131.173 30.278 131.047 30.474 131.047 30.726ZM146.53 22.228C146.53 24.496 147.58 25.504 149.218 25.994V27.688C147.678 27.408 146.32 26.666 145.592 25.686C144.892 26.708 143.534 27.52 141.938 27.828V26.134C143.632 25.63 144.612 24.398 144.612 22.228V20.128H146.53V22.228ZM150.898 29.074V23.964H148.308V22.312H150.898V20.058H152.816V29.074H150.898ZM143.128 32.966V28.416H145.046V31.3H153.04V32.966H143.128ZM160.557 23.124V24.692H157.603V26.092H159.955C160.823 26.092 161.369 25.938 161.789 25.63V20.128H163.595V23.11H164.589V20.058H166.423V27.968H164.589V24.79H163.595V27.898H161.789V27.1C161.369 27.478 160.725 27.646 159.437 27.646H155.755V20.212H160.711V21.766H157.603V23.124H160.557ZM164.505 30.222H156.497V28.57H166.423V33.12H164.505V30.222ZM172.527 29.326C171.869 30.586 170.357 31.608 168.817 32.056V30.292C170.301 29.62 171.575 28.444 171.575 24.832V20.212H173.493V24.832C173.493 28.444 174.767 29.62 176.237 30.292V32.056C174.697 31.608 173.199 30.572 172.527 29.326ZM179.681 32.91H177.763V20.058H179.681V32.91ZM184.594 29.928H182.48V32.028H183.53C183.53 32.644 183.18 32.98 182.48 33.008V33.918C183.894 33.876 184.594 33.092 184.594 32.028V29.928ZM44.499 47.266H48.769V48.932H44.499V52.39H48.573C49.609 52.39 50.365 52.222 50.771 51.872V42.058H52.689V47.154H54.621V48.806H52.689V54.91H50.771V53.426C50.351 53.846 49.413 54.056 48.195 54.056H42.595V42.282H48.909V43.948H44.499V47.266ZM55.8804 45.74C55.8804 44.382 56.2724 43.374 56.9724 42.744C57.5464 42.24 58.3304 41.988 59.2824 41.988C60.2484 41.988 61.0184 42.24 61.5924 42.744C62.2924 43.374 62.6844 44.382 62.6844 45.74C62.6844 47.112 62.2924 48.106 61.5924 48.736C61.0184 49.254 60.2484 49.506 59.2824 49.506C58.3304 49.506 57.5464 49.254 56.9724 48.736C56.2724 48.106 55.8804 47.112 55.8804 45.74ZM57.7564 45.74C57.7564 46.538 57.9384 47.112 58.2464 47.448C58.4984 47.714 58.8484 47.854 59.2824 47.854C59.7164 47.854 60.0664 47.714 60.3184 47.448C60.6264 47.112 60.8084 46.538 60.8084 45.74C60.8084 44.942 60.6264 44.382 60.3184 44.032C60.0664 43.766 59.7164 43.626 59.2824 43.626C58.8484 43.626 58.4984 43.766 58.2464 44.032C57.9384 44.382 57.7564 44.942 57.7564 45.74ZM64.5464 51.074V42.058H66.4644V51.074H64.5464ZM56.7764 54.966V50.416H58.6944V53.3H66.6884V54.966H56.7764ZM76.1099 48.148C76.1099 50.402 75.9279 52.124 75.1439 53.146C74.6119 53.846 73.7579 54.224 72.7499 54.224C71.7559 54.224 70.9019 53.846 70.3559 53.146C69.5719 52.124 69.4039 50.402 69.4039 48.148C69.4039 45.908 69.5719 44.186 70.3559 43.164C70.9019 42.464 71.7559 42.072 72.7499 42.072C73.7579 42.072 74.6119 42.464 75.1439 43.164C75.9279 44.186 76.1099 45.908 76.1099 48.148ZM71.2939 48.148C71.2939 50.052 71.3919 51.466 71.8119 52.096C72.0219 52.404 72.3579 52.572 72.7499 52.572C73.1419 52.572 73.4919 52.404 73.7019 52.096C74.1219 51.466 74.2059 50.052 74.2059 48.148C74.2059 46.258 74.1219 44.844 73.7019 44.214C73.4919 43.906 73.1419 43.738 72.7499 43.738C72.3579 43.738 72.0219 43.906 71.8119 44.214C71.3919 44.844 71.2939 46.258 71.2939 48.148ZM79.8899 54.91H77.9719V42.058H79.8899V54.91ZM91.3966 43.766V42.212H93.2726V48.274H86.8746V42.212H88.7506V43.766H91.3966ZM91.3966 45.32H88.7506V46.72H91.3966V45.32ZM97.1226 44.508H98.9006V46.188H97.1226V48.442H95.2046V42.058H97.1226V44.508ZM89.4786 53.496H97.2766V55.05H87.5606V51.284H95.2046V50.584H87.5606V49.044H97.1226V52.81H89.4786V53.496ZM102.19 41.68H104.08V42.814H105.998V44.368H100.16V42.814H102.19V41.68ZM100.398 47.238C100.398 46.51 100.678 45.866 101.182 45.432C101.644 45.026 102.302 44.788 103.1 44.788C103.898 44.788 104.556 45.026 105.018 45.432C105.536 45.866 105.816 46.51 105.816 47.238C105.816 47.98 105.536 48.624 105.018 49.058C104.556 49.464 103.898 49.702 103.1 49.702C102.302 49.702 101.644 49.464 101.182 49.058C100.678 48.624 100.398 47.98 100.398 47.238ZM102.162 47.238C102.162 47.504 102.246 47.728 102.4 47.896C102.568 48.092 102.806 48.218 103.1 48.218C103.408 48.218 103.646 48.092 103.8 47.896C103.954 47.728 104.052 47.504 104.052 47.238C104.052 46.972 103.954 46.748 103.8 46.58C103.646 46.384 103.408 46.272 103.1 46.272C102.806 46.272 102.568 46.384 102.4 46.58C102.246 46.748 102.162 46.972 102.162 47.238ZM109.232 49.898V46.762H108.238V49.66H106.432V42.128H108.238V45.082H109.232V42.058H111.066V49.898H109.232ZM101.098 52.698C101.098 51.872 101.504 51.298 102.176 50.906C103.114 50.374 104.584 50.192 106.236 50.192C107.888 50.192 109.344 50.374 110.296 50.906C110.968 51.298 111.374 51.872 111.374 52.698C111.374 53.51 110.968 54.084 110.296 54.476C109.344 55.008 107.888 55.19 106.236 55.19C104.584 55.19 103.114 55.008 102.176 54.476C101.504 54.084 101.098 53.51 101.098 52.698ZM103.016 52.698C103.016 52.908 103.142 53.062 103.394 53.202C103.912 53.468 104.948 53.58 106.236 53.58C107.524 53.58 108.56 53.468 109.078 53.202C109.316 53.062 109.456 52.908 109.456 52.698C109.456 52.488 109.316 52.32 109.078 52.18C108.56 51.914 107.524 51.802 106.236 51.802C104.948 51.802 103.912 51.914 103.394 52.18C103.142 52.32 103.016 52.488 103.016 52.698ZM116.077 41.68H117.995V42.968H120.641V44.55H113.319V42.968H116.077V41.68ZM113.697 47.798C113.697 47.028 113.991 46.398 114.495 45.936C115.069 45.404 115.951 45.096 117.001 45.096C118.051 45.096 118.933 45.404 119.521 45.936C120.011 46.398 120.319 47.028 120.319 47.798C120.319 48.554 120.011 49.184 119.521 49.646C118.933 50.192 118.051 50.486 117.001 50.486C115.951 50.486 115.069 50.192 114.495 49.646C113.991 49.184 113.697 48.554 113.697 47.798ZM115.545 47.798C115.545 48.092 115.643 48.33 115.839 48.526C116.105 48.792 116.525 48.946 117.001 48.946C117.491 48.946 117.911 48.792 118.177 48.526C118.373 48.33 118.471 48.092 118.471 47.798C118.471 47.49 118.373 47.252 118.177 47.056C117.911 46.79 117.491 46.636 117.001 46.636C116.525 46.636 116.105 46.79 115.839 47.056C115.643 47.252 115.545 47.49 115.545 47.798ZM124.001 45.558H125.779V47.238H124.001V51.452H122.083V42.058H124.001V45.558ZM116.357 53.3H124.225V54.966H114.439V51.018H116.357V53.3ZM136.936 54.028H139.036V42.954H137.006V50.486L133.114 42.954H131.014V54.028H133.044V46.51L136.936 54.028ZM140.831 54.028H142.889V49.38H147.005V47.644H142.889V44.704H147.495V42.954H140.831V54.028ZM148.088 44.704H151.084V54.028H153.142V44.704H156.138V42.954H148.088V44.704ZM162.095 45.096V43.948H157.671V42.282H163.985V44.872C163.985 49.758 162.221 53.048 157.601 54.21V52.39C160.779 51.466 162.095 48.89 162.095 45.096ZM167.765 47.154H169.697V48.806H167.765V54.91H165.847V42.058H167.765V47.154ZM175.226 42.212H181.624V44.844H183.738V42.058H185.656V51.074H183.738V46.496H181.624V49.31H175.226V42.212ZM177.102 43.85V47.672H179.748V43.85H177.102ZM175.968 54.966V50.416H177.886V53.3H185.88V54.966H175.968ZM195.623 42.282V43.948H193.047V46.832C193.047 50.444 194.279 51.62 195.735 52.292V54.056C194.195 53.608 192.795 52.53 192.095 51.326C191.395 52.53 189.995 53.608 188.455 54.056V52.292C189.911 51.62 191.129 50.444 191.129 46.832V43.948H188.595V42.282H195.623ZM199.081 54.91H197.163V48.4H194.503V46.734H197.163V42.058H199.081V54.91ZM210.364 44.228C210.364 46.496 211.414 47.504 213.052 47.994V49.688C211.512 49.408 210.154 48.666 209.426 47.686C208.726 48.708 207.368 49.52 205.772 49.828V48.134C207.466 47.63 208.446 46.398 208.446 44.228V42.128H210.364V44.228ZM214.732 51.074V45.964H212.142V44.312H214.732V42.058H216.65V51.074H214.732ZM206.962 54.966V50.416H208.88V53.3H216.874V54.966H206.962ZM224.391 45.124V46.692H221.437V48.092H223.789C224.657 48.092 225.203 47.938 225.623 47.63V42.128H227.429V45.11H228.423V42.058H230.257V49.968H228.423V46.79H227.429V49.898H225.623V49.1C225.203 49.478 224.559 49.646 223.271 49.646H219.589V42.212H224.545V43.766H221.437V45.124H224.391ZM228.339 52.222H220.331V50.57H230.257V55.12H228.339V52.222ZM235.255 43.962V47.98H240.099V49.632H237.663V52.544H239.385C240.421 52.544 241.191 52.376 241.597 52.012V42.058H243.515V54.91H241.597V53.58C241.177 54 240.225 54.21 239.021 54.21H232.819V52.544H235.759V49.632H233.323V42.282H239.945V43.962H235.255ZM246.608 54.056V42.282H252.936V44.76H255.036V42.058H256.954V54.91H255.036V51.228H252.936V54.056H246.608ZM252.936 46.412V49.562H255.036V46.412H252.936ZM251.032 43.948H248.512V52.39H251.032V43.948ZM47.4566 73.326C46.7986 74.586 45.2866 75.608 43.7466 76.056V74.292C45.2306 73.62 46.5046 72.444 46.5046 68.832V64.212H48.4226V68.832C48.4226 72.444 49.6966 73.62 51.1666 74.292V76.056C49.6266 75.608 48.1286 74.572 47.4566 73.326ZM54.6106 76.91H52.6926V64.058H54.6106V76.91ZM61.806 65.864H57.48V64.212H63.724V65.318C63.724 69.476 61.512 71.52 57.186 71.996V70.33C60.322 69.91 61.806 68.342 61.806 65.864ZM67.728 67.418H69.506V69.084H67.728V73.074H65.81V64.058H67.728V67.418ZM60.084 75.3H67.952V76.966H58.166V72.416H60.084V75.3ZM77.7095 70.148C77.7095 72.402 77.5275 74.124 76.7435 75.146C76.2115 75.846 75.3575 76.224 74.3495 76.224C73.3555 76.224 72.5015 75.846 71.9555 75.146C71.1715 74.124 71.0035 72.402 71.0035 70.148C71.0035 67.908 71.1715 66.186 71.9555 65.164C72.5015 64.464 73.3555 64.072 74.3495 64.072C75.3575 64.072 76.2115 64.464 76.7435 65.164C77.5275 66.186 77.7095 67.908 77.7095 70.148ZM72.8935 70.148C72.8935 72.052 72.9915 73.466 73.4115 74.096C73.6215 74.404 73.9575 74.572 74.3495 74.572C74.7415 74.572 75.0915 74.404 75.3015 74.096C75.7215 73.466 75.8055 72.052 75.8055 70.148C75.8055 68.258 75.7215 66.844 75.3015 66.214C75.0915 65.906 74.7415 65.738 74.3495 65.738C73.9575 65.738 73.6215 65.906 73.4115 66.214C72.9915 66.844 72.8935 68.258 72.8935 70.148ZM81.4895 76.91H79.5715V64.058H81.4895V76.91ZM97.4482 68.062C97.4482 67.376 97.1962 66.886 96.7482 66.522C96.1322 66.032 95.1522 65.822 94.0182 65.822C92.8842 65.822 91.9042 66.032 91.2882 66.522C90.8402 66.886 90.5882 67.376 90.5882 68.062C90.5882 68.734 90.8402 69.224 91.2882 69.588C91.9042 70.078 92.8842 70.288 94.0182 70.288C95.1522 70.288 96.1322 70.078 96.7482 69.588C97.1962 69.224 97.4482 68.734 97.4482 68.062ZM99.3662 68.062C99.3662 69.294 98.8902 70.218 98.0782 70.862C97.3082 71.464 96.2442 71.814 94.9842 71.926V74.684H99.7162V76.35H88.2922V74.684H93.0802V71.926C91.8062 71.814 90.7422 71.464 89.9582 70.862C89.1462 70.218 88.6702 69.294 88.6702 68.062C88.6702 66.816 89.1462 65.906 89.9582 65.262C90.9242 64.506 92.3382 64.142 94.0182 64.142C95.6982 64.142 97.1262 64.506 98.0782 65.262C98.8902 65.906 99.3662 66.816 99.3662 68.062ZM105.526 76.056H102.068V69.266H104.896V65.948H102.068V64.282H106.772V70.932H103.944V74.39H105.904C106.842 74.39 107.542 74.264 107.948 73.942V64.128H109.81V68.986H110.804V64.058H112.666V76.91H110.804V70.666H109.81V76.756H107.948V75.51C107.514 75.86 106.688 76.056 105.526 76.056ZM117.635 65.836V67.432H122.577V69.056H120.085V70.526H121.891C122.955 70.526 123.585 70.372 124.019 70.064V64.058H125.937V73.452H124.019V71.632C123.585 72.01 122.801 72.192 121.359 72.192H115.073V70.526H118.167V69.056H115.745V64.212H122.507V65.836H117.635ZM116.249 77.05V72.976H118.167V75.384H126.161V77.05H116.249ZM138.424 67.362C137.388 68.412 135.386 69.308 133.006 69.518V67.852C135.456 67.502 137.458 66.55 137.458 64.716V64.128H139.376V64.716C139.376 66.55 141.392 67.502 143.842 67.852V69.518C141.462 69.308 139.46 68.412 138.424 67.362ZM132.656 70.358H144.22V72.024H139.53V74.25H137.626V72.024H132.656V70.358ZM135.386 75.286H143.632V76.966H133.468V73.088H135.386V75.286ZM149.763 73.326C149.105 74.586 147.593 75.608 146.053 76.056V74.292C147.537 73.62 148.811 72.444 148.811 68.832V64.212H150.729V68.832C150.729 72.444 152.003 73.62 153.473 74.292V76.056C151.933 75.608 150.435 74.572 149.763 73.326ZM156.917 76.91H154.999V70.218H152.185V68.552H154.999V64.058H156.917V76.91ZM163.399 76.056H159.941V64.282H164.645V65.948H161.817V74.39H163.777C164.715 74.39 165.415 74.264 165.821 73.942V64.128H167.683V68.986H168.677V64.058H170.539V76.91H168.677V70.666H167.683V76.756H165.821V75.51C165.387 75.86 164.561 76.056 163.399 76.056ZM175.606 70.918H183.964V72.584H179.736V74.684H184.468V76.35H173.044V74.684H177.832V72.584H173.688V67.572H181.906V65.948H173.688V64.282H183.824V69.238H175.606V70.918ZM195.079 66.228C195.079 68.496 196.129 69.504 197.767 69.994V71.688C196.227 71.408 194.869 70.666 194.141 69.686C193.441 70.708 192.083 71.52 190.487 71.828V70.134C192.181 69.63 193.161 68.398 193.161 66.228V64.128H195.079V66.228ZM199.447 73.074V67.964H196.857V66.312H199.447V64.058H201.365V73.074H199.447ZM191.677 76.966V72.416H193.595V75.3H201.589V76.966H191.677ZM209.106 67.124V68.692H206.152V70.092H208.504C209.372 70.092 209.918 69.938 210.338 69.63V64.128H212.144V67.11H213.138V64.058H214.972V71.968H213.138V68.79H212.144V71.898H210.338V71.1C209.918 71.478 209.274 71.646 207.986 71.646H204.304V64.212H209.26V65.766H206.152V67.124H209.106ZM213.054 74.222H205.046V72.57H214.972V77.12H213.054V74.222ZM219.942 65.822V67.11H224.884V68.734H222.42V69.714H224.198C225.262 69.714 225.892 69.574 226.326 69.252V64.058H228.244V71.618H226.326V70.792C225.892 71.17 225.108 71.352 223.666 71.352H217.38V69.714H220.502V68.734H218.052V64.212H224.814V65.822H219.942ZM226.326 72.122H228.244V77.05H218.556V72.122H220.474V73.088H226.326V72.122ZM220.474 74.684V75.454H226.326V74.684H220.474ZM237.175 76.056H231.323V64.212H233.227V74.39H237.539C238.575 74.39 239.345 74.222 239.751 73.872V64.058H241.669V76.91H239.751V75.426C239.331 75.846 238.379 76.056 237.175 76.056ZM250.293 76.056H244.693V64.282H251.007V65.948H246.597V74.39H250.671C251.707 74.39 252.463 74.222 252.869 73.872V64.058H254.787V69.154H256.719V70.806H254.787V76.91H252.869V75.426C252.449 75.846 251.511 76.056 250.293 76.056ZM260.022 73.928H257.908V76.028H260.022V73.928Z" fill="white"/>
<path d="M233 119L245.99 96.5H220.01L233 119Z" fill="#FF5050"/>
</svg>
