<svg width="52" height="52" viewBox="0 0 52 52" fill="none" xmlns="http://www.w3.org/2000/svg">
<mask id="mask0_641_1324" style="mask-type:alpha" maskUnits="userSpaceOnUse" x="6" y="6" width="40" height="40">
<path d="M6.5 14.5C6.5 10.7288 6.5 8.84315 7.67157 7.67157C8.84315 6.5 10.7288 6.5 14.5 6.5H37.5C41.2712 6.5 43.1569 6.5 44.3284 7.67157C45.5 8.84315 45.5 10.7288 45.5 14.5V37.5C45.5 41.2712 45.5 43.1569 44.3284 44.3284C43.1569 45.5 41.2712 45.5 37.5 45.5H14.5C10.7288 45.5 8.84315 45.5 7.67157 44.3284C6.5 43.1569 6.5 41.2712 6.5 37.5V14.5Z" fill="#273B4A"/>
</mask>
<g mask="url(#mask0_641_1324)">
<path d="M15.3223 23.6777L9.01935 29.9806C7.77866 31.2213 7.15831 31.8417 6.85362 32.6357C6.54893 33.4297 6.59504 34.3058 6.68726 36.058L7.58333 53.0833H45.5V39.3129C45.5 37.5583 45.5 36.681 45.154 35.9041C44.808 35.1272 44.1559 34.5403 42.8517 33.3665L37.4875 28.5387C36.1519 27.3367 35.4841 26.7357 34.6866 26.7566C33.8891 26.7776 33.2538 27.4129 31.9832 28.6835L28.0888 32.5778C27.1424 33.5242 26.6692 33.9974 26.1482 33.8971C25.6272 33.7968 25.3636 33.1817 24.8363 31.9515L21.8273 24.9304C20.7729 22.47 20.2456 21.2398 19.2036 21.0391C18.1615 20.8385 17.2151 21.7849 15.3223 23.6777Z" fill="#7E869E" fill-opacity="0.25" stroke="#222222"/>
</g>
<path d="M6.5 14.5C6.5 10.7288 6.5 8.84315 7.67157 7.67157C8.84315 6.5 10.7288 6.5 14.5 6.5H37.5C41.2712 6.5 43.1569 6.5 44.3284 7.67157C45.5 8.84315 45.5 10.7288 45.5 14.5V37.5C45.5 41.2712 45.5 43.1569 44.3284 44.3284C43.1569 45.5 41.2712 45.5 37.5 45.5H14.5C10.7288 45.5 8.84315 45.5 7.67157 44.3284C6.5 43.1569 6.5 41.2712 6.5 37.5V14.5Z" stroke="#222222" stroke-width="1.2"/>
<circle cx="35.75" cy="16.25" r="3.25" fill="#222222"/>
</svg>
