<svg width="30" height="30" viewBox="0 0 30 30" fill="none" xmlns="http://www.w3.org/2000/svg">
<circle cx="15" cy="15" r="15" fill="#FF5050"/>
<path d="M13.1723 11.579C13.1723 10.319 13.8923 9.581 14.9723 9.581C16.0163 9.581 16.7363 10.265 16.7363 11.543C16.7363 12.479 16.4123 13.037 15.3863 13.937C14.0183 15.143 13.6043 15.953 13.6043 17.447V18.167H16.1063V17.645C16.1063 16.619 16.4303 16.061 17.4923 15.107C18.6803 14.063 19.2383 13.109 19.2383 11.471C19.2383 9.113 17.6903 7.421 14.9723 7.421C12.2183 7.421 10.6883 9.113 10.6883 11.471V11.579H13.1723ZM13.6043 21.911H16.1063V19.553H13.6043V21.911Z" fill="white"/>
</svg>
